<mxfile host="app.diagrams.net" modified="2020-09-11T13:47:20.884Z" agent="5.0 (Windows NT 10.0; Win64; x64) AppleWebKit/537.36 (KHTML, like Gecko) Chrome/85.0.4183.102 Safari/537.36" etag="yt8NLz5eGzUosJIOJ5OX" version="13.6.9" type="github">
  <diagram id="UIcYX_llFcmOX13Do89k" name="Page-1">
    <mxGraphModel dx="1296" dy="685" grid="1" gridSize="10" guides="1" tooltips="1" connect="1" arrows="1" fold="1" page="1" pageScale="1" pageWidth="827" pageHeight="1169" math="0" shadow="0">
      <root>
        <mxCell id="0" />
        <mxCell id="1" parent="0" />
        <mxCell id="HueaLsdCbIul2nFoNvsX-1" value="IP Base Airplane Inputs&lt;br&gt;contain key board inputs&lt;br&gt;Method: Handle input&lt;br&gt;" style="rounded=0;whiteSpace=wrap;html=1;" vertex="1" parent="1">
          <mxGeometry x="320" y="240" width="170" height="60" as="geometry" />
        </mxCell>
        <mxCell id="HueaLsdCbIul2nFoNvsX-3" value="IP Airplane Xbox input" style="rounded=0;whiteSpace=wrap;html=1;" vertex="1" parent="1">
          <mxGeometry x="350" y="360" width="120" height="60" as="geometry" />
        </mxCell>
      </root>
    </mxGraphModel>
  </diagram>
</mxfile>
